<?xml version="1.0" encoding="utf-8"?>
<!-- Generator: Adobe Illustrator 24.0.1, SVG Export Plug-In . SVG Version: 6.00 Build 0)  -->
<svg version="1.1" xmlns="http://www.w3.org/2000/svg" xmlns:xlink="http://www.w3.org/1999/xlink" x="0px" y="0px"
	 viewBox="0 0 250 70.48" style="enable-background:new 0 0 250 70.48;" xml:space="preserve">
<style type="text/css">
	.st0{fill:#D3C9C0;}
	.st1{fill:#F4F2EF;}
	.st2{fill:#B3A192;}
	.st3{fill:#DCD3CD;}
	.st4{fill:#54290B;}
</style>
<g id="Ebene_2">
</g>
<g id="Ebene_1">
	<path class="st0" d="M81.26,42.61c-0.03-1.37-0.12-2.74,0.23-4.08C81.56,39.9,81.84,41.28,81.26,42.61z"/>
	<path class="st1" d="M219.09,38.26c-0.08,0.56-0.36,1-0.85,1.68c-0.08-0.89-0.03-1.49,0.22-2.07
		C218.59,38.13,218.81,38.24,219.09,38.26z"/>
	<path class="st2" d="M111.91,42.91c0.09,0.42,0,0.74-0.55,0.95c-0.11-0.85-0.17-1.59,0.19-2.3
		C111.78,41.98,111.46,42.55,111.91,42.91z"/>
	<path class="st3" d="M237.84,42.93c0.07,0.39-0.03,0.91-0.43,0.76c-0.3-0.11-0.19-0.75,0.09-1.11
		C237.62,42.69,237.73,42.81,237.84,42.93z"/>
	<path class="st0" d="M81.85,42.93c0.02,0.46-0.13,0.85-0.53,1.12c-0.23-0.38-0.2-0.75-0.08-1.12
		C81.44,42.93,81.64,42.93,81.85,42.93z"/>
	<path class="st4" d="M84.89,27.12c-1.4,0.32-1.8,1.06-1.72,2.35c0.27,4.55,0.57,9.12-1.32,13.46c-0.2,0.23-0.41,0.83-0.61,0
		c-0.05-0.11-0.04-0.21,0.02-0.31c0.32-1.35-0.1-2.74,0.23-4.08c0.08-1.66,0.24-3.33-0.16-4.98c-0.86-3.5-3.64-5.4-7.21-4.9
		c-1.3,0.18-2.48,0.66-3.48,1.49c-0.53,0.43-0.83,0.44-1.39-0.02c-2.37-1.93-5-1.99-7.65-0.68c-0.78,0.39-1.05,0.3-1.56-0.35
		c-1.37-1.73-3.26-2.2-5.38-1.87c-1.09,0.17-1.63,0.72-1.59,1.92c0.08,2.44,0.02,4.89,0.05,7.34c0.02,1.22-0.43,2.23-1.36,3.57
		c0.51-3.45,0.37-6.41-0.91-9.2c-1.89-4.13-6.12-5.28-9.82-2.66c-0.75,0.53-1.3,0.62-2.06,0.17c-1.09-0.65-2.03-0.43-3.01,0.43
		c-2.73,2.38-4.31,5.35-4.75,8.9c-0.17,1.36-0.58,2.59-1.23,3.76c-2.03,3.66-4.07,7.31-7.92,9.44c-3.01,1.67-6.21,0.96-8.25-1.83
		c-1.34-1.83-2.11-3.92-2.4-6.14c-1.21-9.31,0.4-18.15,4.73-26.47c0.85-1.63,1.95-3.12,3.45-4.24c2.59-1.94,5.25-0.9,5.75,2.26
		c0.13,0.81,0.13,1.67,0.05,2.49c-0.35,3.74-1.47,7.28-2.98,10.71c-0.52,1.18-0.87,2.44,0.39,3.31c1.23,0.85,2.32,0.18,3.24-0.76
		c3.92-4,5.5-8.88,5.45-14.4C31.43,8.99,26.48,3.96,18.65,4.36C13.29,4.63,9.83,8,7.12,12.21c-3.58,5.54-5.14,11.77-5.69,18.26
		c-0.52,6.06-0.02,12,2.6,17.6c3.1,6.63,8.64,9.86,15.55,8.9c3.99-0.55,7.06-2.86,9.7-5.75c1.24-1.37,2.32-2.88,3.54-4.41
		c0.36,0.52,0.64,0.93,0.93,1.32c3.4,4.58,10.97,5.39,14.39,0.91c1.32-1.73,3.03-2.18,4.88-2.63c0.12,5.16,6.36,7.11,9.99,5.47
		c-3.04-4.12-2.74-13.76,0.7-16.69c-0.67,3.44-0.69,6.74-0.75,10.03c-0.09,4.87,3.07,7.71,7.93,7.49c1.12-0.05,1.18-0.47,0.9-1.29
		c-0.61-1.8-1.15-3.62-0.99-5.54c0.21-2.43,0.43-4.87,0.8-7.29c0.17-1.12,0.74-2.14,1.91-3.11c-0.13,2.56-0.41,4.81-0.32,7.05
		c0.16,4.08,2.02,7.22,5.73,9.1c2.43,1.23,4.07,0.85,5.59-1.42c0.78-1.17,1.18-1.54,2.27-0.27c1.04,1.22,2.49,2.07,4.14,2.31
		c1.57,0.24,2.62-0.69,3.55-1.78c0.35-0.41,0.6-0.11,0.81,0.1c1.97,1.9,4.38,1.88,6.86,1.6c-1.98-6.94-1.33-14.59,1.46-16.45
		c-0.09,1.11-0.15,2.16-0.26,3.21c-0.37,3.34-0.08,6.54,1.84,9.44c1.36,2.05,3.22,3.41,5.61,3.85c2,0.37,3.16-1,4.15-2.49
		c0.24-0.36,0.47-0.4,0.78-0.08c1.43,1.44,3.21,2.05,5.48,2.06c-1.08,1.01-2.01,1.78-2.82,2.66c-2.57,2.79-2.71,6.52-0.42,9.79
		c2.17,3.1,5.53,4.2,8.92,2.77c2.85-1.2,4.48-3.53,5.43-6.4c1.09-3.29,1.65-6.68,1.94-10.12c0.07-0.83,0.33-1.43,0.89-2.04
		c3.22-3.5,8.02-14.45,8.92-19.18c0.31-1.62-0.72-2.83-2.58-3.21c-1.66-0.34-1.92,0.79-2.23,1.98c-0.48,1.85-3.46,10.68-4.78,12.33
		c-0.53-1.79-0.69-3.51-2.06-4.69c-0.23-0.2-0.24-0.42-0.23-0.73c0.18-4.18-3.46-7.98-7.59-7.96c-4.96,0.02-9.08,3.27-11.05,8.42
		c-0.94,2.46-0.85,5.1-1.64,7.56c-0.9-0.24-0.37-0.86-0.36-1.35c0.05-1.83,0.12-3.67,0.15-5.5c0.1-6.01-4.54-9.05-10.01-6.54
		c-0.61,0.28-0.93,0.33-1.33-0.28c-1.17-1.8-2.98-2.21-4.96-2.07c-1.88,0.13-2.32,0.72-2.09,2.56c0.39,3.22,0.36,6.45-0.14,9.64
		c-0.21,1.33-0.37,2.8-1.54,4.05c0-3.25-0.03-6.24,0.01-9.23c0.04-2.64-0.72-4.89-2.92-6.5 M43.53,45.98
		c-0.72,0.59-4.47,1.36-5.58-1.41c-1.02-2.52,0.9-10.66,5.46-12.51c0.94-0.38,2.81-0.2,3.23,0.57c0.69,1.26,0.79,2.64,0.77,4.66
		C47.39,38.08,48.23,42.13,43.53,45.98z M123.23,60.11c-0.31,0.38-0.75,0.81-1.26,0.53c-0.64-0.34-0.19-0.9,0-1.29
		c0.55-1.15,1.31-2.14,2.62-2.85C124.32,57.9,124.05,59.11,123.23,60.11z M126.9,34.4c-1.6,1.3-0.64,3.01-0.86,4.49
		c-0.4,2.65-1.54,4.82-3.43,6.64c-0.9,0.87-1.46,0.62-1.63-0.58c-0.57-3.97,0.32-7.58,2.72-10.81c0.54-0.73,1.27-1.24,2.24-1.38
		C126.59,32.75,127.4,33.99,126.9,34.4z"/>
	<path class="st4" d="M244.04,27.61c-1.47-0.21-2.09,0.39-2.54,2.39c-0.59,2.65-2.72,10.37-3.66,12.93
		c-0.1,0.11-0.23,0.21-0.35,0.05c-0.1-0.12-0.08-0.28,0.02-0.41c0.05-2.16,0.1-4.32,0.16-6.48c0.15-5.96-4.55-9.08-9.98-6.59
		c-0.71,0.33-1.02,0.27-1.45-0.37c-1.16-1.71-2.92-2.1-4.84-1.98c-1.95,0.12-2.34,0.72-2.14,2.67c0.29,2.81,0.44,5.63-0.17,8.43
		c-0.25,0.13-0.35,0.44-0.64,0.51c0.08-0.3-0.19-0.6,0.01-0.9c-0.01-1.9-0.13-3.79-0.69-5.61c-1.9-6.19-7.42-6.64-10.64-3.88
		c-0.69,0.59-1.19,0.3-1.77-0.01c-1.11-0.6-2.02-0.43-3.02,0.42c-2.06,1.75-3.36,3.99-4.45,6.8c-0.23-1.8-0.52-3.15-1.06-4.44
		c-1.8-4.31-6.15-5.63-9.97-2.94c-0.75,0.53-1.31,0.6-2.07,0.15c-1.1-0.65-2.06-0.39-3.02,0.46c-2.05,1.83-3.53,4-4.25,6.64
		c-0.33,1.2-0.52,2.44-0.82,3.88c-2.1-3.04-4.89-4.94-7.81-6.68c-2.25-1.34-4.52-2.61-6.76-3.96c-1.86-1.12-3.71-2.24-5.27-3.78
		c-2.17-2.14-2.51-4.42-1.06-7.1c2.12-3.91,9.09-6.82,13.34-5.56c1.76,0.52,2.35,1.78,1.61,3.48c-0.79,1.81-2.22,3.08-3.82,4.09
		c-2.93,1.85-3.25,4.59-2.8,7.6c0.24,1.65,1.39,2.2,2.77,1.29c2.38-1.58,5.01-2.63,7.53-3.92c4.34-2.21,5.94-6.43,4.01-10.94
		c-2.97-6.99-10.1-12.95-20.39-9.8c-4.47,1.37-8.2,3.8-10.63,7.84c-4.14,6.87-2.66,14.03,3.77,19.28c3.73,3.04,7.98,5.23,12.17,7.54
		c1.77,0.97,3.41,2.13,4.63,3.75c2.14,2.83,0.87,5.71-2.67,6.12c-0.72,0.09-1.44,0.03-2.15-0.16c-1.95-0.53-3.53-1.61-4.8-3.15
		c-1.93-2.33-2.84-4.99-2.64-8.03c0.06-0.84,0.03-1.74-0.89-2.16c-0.88-0.4-1.64,0.02-2.29,0.58c-0.92,0.8-1.85,1.61-2.65,2.53
		c-1.03,1.18-1.43,2.58-1.1,4.18c1.04,5.09,3.87,8.73,8.54,11.04c5.92,2.93,11.94,2.29,16.61-1.83c1.93-1.7,2.99-3.91,3.88-6.36
		c2.49,4.47,4.51,6.07,8.16,6.63c4.04,0.63,6.96-1.04,9.3-4.24c0.73-1,2.26-0.74,3.39-1.16c0.55-0.21,0.92,0.93,1.3,1.5
		c3.13,4.55,11.24,6.16,15.38,0.15c0.92-1.34,2.35-1.17,3.54-1.46c0.72-0.17,0.52,1.15,0.82,1.76c0.87,1.81,2.19,3.03,4.1,3.65
		c1.43,0.46,2.85,0.17,4.29,0.18c-1.92-7.35-1.32-14.54,1.41-16.48c-0.11,2.19-0.32,4.36-0.32,6.52c0.02,4.31,2.69,8.26,6.42,9.69
		c1.75,0.67,3.12,0.37,4.38-1c0.65-0.7,1.16-1.5,1.51-2.38c1.64-4.09,4.29-13.4,4.95-17.75C246.71,29.22,245.59,27.83,244.04,27.61z
		 M192.74,40.7c-0.92,3.84-4.49,5.7-5.24,5.72c-1.17,0.04-4.26,0.04-3.69-5.92c0.12-1.22,0.73-4.87,2.1-6.24
		c2.07-2.07,4.73-2.36,5.61-2.33c0.89,0.03,1.12,0.83,1.29,1.53c0,0.01,0,0.02,0.01,0.03c0.48,2.05,0.48,4.19,0.11,6.27
		C192.88,40.06,192.82,40.38,192.74,40.7z M211.85,44.89c-1.53,1.53-4.38,2.3-6.08,1.54c-4.08-1.83-0.37-11.03,1.56-12.91
		c1.62-1.58,5.25-1.66,5.67-0.88c0.66,1.21,0.78,2.53,0.78,3.52C213.78,40.29,212.87,43.87,211.85,44.89z"/>
	<ellipse class="st4" cx="85.61" cy="14.39" rx="4.34" ry="5.9"/>
</g>
</svg>
