<?xml version="1.0" encoding="utf-8"?>
<!-- Generator: Adobe Illustrator 24.0.1, SVG Export Plug-In . SVG Version: 6.00 Build 0)  -->
<svg version="1.1" xmlns="http://www.w3.org/2000/svg" xmlns:xlink="http://www.w3.org/1999/xlink" x="0px" y="0px"
	 viewBox="0 0 227.11 95.66" style="enable-background:new 0 0 227.11 95.66;" xml:space="preserve">
<style type="text/css">
	.st0{fill:#54290B;}
	.st1{fill:#E8E3DE;}
	.st2{fill:#A58F7D;}
	.st3{fill:#EFEBE8;}
	.st4{fill:#A99583;}
	.st5{fill:#D9D0C9;}
	.st6{fill:#C0B2A5;}
	.st7{fill:#E2DCD6;}
</style>
<g id="Ebene_2">
</g>
<g id="Ebene_1">
	<path class="st0" d="M23.3,48.78c0.39-9.29,2.81-18.17,5.33-27.03c0.74-2.62,1.52-5.22,2.25-7.84c0.23-0.83,0.44-1.68,0.55-2.54
		c0.12-0.9,0.4-1.97-0.47-2.58c-0.8-0.57-1.66,0.08-2.44,0.4c-0.58,0.24-1.15,0.56-1.67,0.92c-6.3,4.37-11.29,9.9-14.85,16.7
		c-0.95,1.81-1.54,3.72-1.36,5.83c0.12,1.34-0.64,1.84-2,1.5c-4.01-0.99-7.36-6.37-6.44-10.4c1.33-5.83,5.07-10.04,9.48-13.76
		c3.74-3.16,7.95-5.62,12.47-7.43c3.97-1.59,8.06-1.32,11.96,0.47c3.66,1.69,5.28,4.71,5.2,8.67c-0.05,2.45-0.72,4.77-1.62,7.06
		c-3.95,10.08-6.77,20.42-7.05,31.33c-0.12,4.55,0.49,9.01,1.76,13.37c0.22,0.77,0.61,1.58-0.15,2.26c-0.86,0.77-1.66,0.1-2.38-0.29
		c-4.81-2.57-7.86-6.39-8.33-11.97C23.41,51.9,23.38,50.34,23.3,48.78z"/>
	<path class="st1" d="M107.36,44.18c-0.33,2.02,0.24,4.17-0.94,6.45c-0.21-2.42,0.32-4.42,0.36-6.45
		C106.97,44.18,107.17,44.18,107.36,44.18z"/>
	<path class="st2" d="M97.67,46.27c-0.64-0.67-0.2-1.19,0.3-1.92c0,2.18,0,4.15,0,6.12C97.29,49.12,97.75,47.68,97.67,46.27z"/>
	<path class="st3" d="M68.08,48.7c-0.06,0.68-0.21,1.33-0.89,2.14c-0.01-0.92-0.16-1.54,0.21-2.14C67.62,48.7,67.85,48.7,68.08,48.7
		z"/>
	<path class="st4" d="M170.71,49.42c0.07,0.53,0.07,1.02-0.56,1.28c-0.17-0.61-0.22-1.16,0.15-1.67
		C170.43,49.16,170.57,49.29,170.71,49.42z"/>
	<path class="st5" d="M193.58,42.07c0.09-0.33,0.23-0.73,0.6-0.69c0.37,0.04,0.25,0.45,0.2,0.7c-0.08,0.38-0.23,0.75-0.36,1.13
		C193.85,42.83,194.1,42.3,193.58,42.07z"/>
	<path class="st6" d="M90.05,36.17c0.41,0.46,0.35,1.02,0.44,1.74c-0.62-0.24-0.67-0.66-0.81-1.02
		C90.02,36.76,89.94,36.41,90.05,36.17z"/>
	<path class="st7" d="M92.27,43.5c-0.31-1.3-0.59-2.47-0.9-3.75C93.52,41.49,93.53,41.53,92.27,43.5z"/>
	<path class="st0" d="M222.46,32.84c-1.68-0.18-2.23,0.86-2.45,2.27c-0.09,0.57-3.55,8.15-3.71,8.7c-0.78,2.54-2.26,4.09-3.54,6.5
		c-0.03-2.32,0.06-4.62,0.28-6.9c0.5-5.14-2.05-8.75-6.41-8.95c-1.79-0.08-3.44,0.44-4.87,1.52c-0.56,0.43-0.91,0.63-1.6,0.07
		c-2.4-1.97-5.09-2.03-7.81-0.76c-0.8,0.38-1.18,0.51-1.79-0.31c-1.3-1.71-3.16-2.22-5.26-1.98c-1.42,0.17-2.13,0.77-1.97,2.4
		c0.29,3,0.24,6.02-0.13,9.01c-0.25,2.01-0.73,3.98-1.82,5.74c-0.18-0.26-0.18-0.47-0.18-0.68c0.04-3.53,0.23-7.06,0.1-10.58
		c-0.15-3.89-3.33-6.39-7.09-5.8c-1.33,0.21-2.26,0.75-1.92,2.44c0.27,1.35,0.27,2.76,0.33,4.15c0.15,3.4-0.49,6.66-1.93,9.75
		c-0.14,0.09-0.24,0.22-0.3,0.37c-0.19-0.23-0.22-0.49-0.11-0.77c0.12-3.53,0.32-7.06,0.32-10.58c0-3.51-3.53-6.41-6.95-5.88
		c-1.04,0.16-2.02,0.52-1.8,1.84c0.4,2.31,0.06,4.62,0.09,6.93c0.03,2.54-1.19,4.49-3.03,6.33c-1.37-2.26-2.82-4.36-4.51-6.24
		c-1.47-1.63-2.55-3.21-1.48-5.48c0.21-0.45,0.18-1.02,0.2-1.54c0.12-3.05-1.55-5.47-4.02-5.88c-2.68-0.43-5.13,1.41-5.9,4.45
		c-0.79,3.1-0.16,5.95,1.47,8.64c0.35,0.57,0.82,1.08,0.42,1.9c-0.59,1.2-1.2,2.37-2.05,3.41c-0.54,0.66-0.87,0.65-1.34-0.13
		c-1.54-2.52-3.38-4.84-5.31-7.07c-0.6-0.7-0.72-1.34-0.46-2.2c0.46-1.56,0.76-3.13,0.42-4.78c-0.47-2.25-1.9-3.87-3.83-4.2
		c-2.05-0.35-4.07,0.69-5.24,2.64c-0.73,1.22-0.84,2.61-1.1,3.94c-0.54,0.01-0.78-0.35-1.11-0.57c-3.78-2.59-8.06-2.64-11.83-0.03
		c-3.38,2.34-5.09,5.75-5.91,9.67c-0.25,0.65-0.38,1.32-0.46,1.99c0.02-0.83-0.01-1.58-0.12-2c-0.52-4.13-2.06-5.77-6.07-6.27
		c-0.94-0.12-1.24-0.35-1.14-1.39c0.26-2.56-0.45-4.82-2.61-6.43c-2.34-1.75-5.07-1-6.33,1.66c-0.67,1.42-0.68,2.91-0.59,4.42
		c0.04,0.32,0.59,0.91-0.37,0.72c-0.26-0.31-0.51-0.63-0.79-0.92c-2.38-2.57-6.35-3.87-8.95-2.36c-1.79,1.04-2.71,1.05-4.3-0.32
		c-1.46-1.25-3.66-1.33-5.43-0.29c-1.65,0.97-0.62,2.64-0.47,3.97c0.46,4.07-0.34,7.94-1.67,11.74c-0.43,0.4-0.65,0.89-0.72,1.46
		c0.07-0.49,0.17-0.97,0.04-1.46c-0.08-1.91,0.16-3.81,0.24-5.71c0.12-2.97-0.31-5.87-3.18-7.57c-2.79-1.65-5.57-1.21-8.13,0.59
		c-0.64,0.45-0.96,0.5-1.59-0.01c-2.42-1.95-5.11-2.01-7.81-0.7c-0.87,0.42-1.22,0.33-1.79-0.38c-1.44-1.8-3.43-2.24-5.62-1.86
		c-1.02,0.18-1.69,0.69-1.6,1.87c0.42,5.67,0.78,16.89,0.51,22.53c-0.3,6.24,6.49,8.6,10.42,6.78c-3.14-4.49-3.37-19.99,0.15-22.85
		c-0.55,3.58-0.74,7.07-0.74,10.57c0,4.87,3.19,7.78,8.08,7.62c1.28-0.04,1.51-0.44,1.06-1.5c-1.82-4.31-0.66-8.66-0.16-13
		c0.15-1.28,0.82-2.35,2.11-3.69c-0.17,1.92-0.29,3.38-0.44,4.83c-0.49,4.71,0.76,8.7,4.76,11.54c1.89,1.34,3.9,2.09,6.14,0.45
		c0.04,0.37,0.06,0.59,0.08,0.8c0.25,4.1,1.67,26.02,2.69,30.03c0.9,3.51,3.61,5.33,6.97,4.69c1.69-0.32,2.37-1.21,1.89-2.82
		c-1.38-4.74-2.31-27.45-2.73-32.27c-0.11-1.3,0.26-1.43,1.42-0.91c4.39,1.95,9.84,0.64,12.95-2.99c1.84-2.15,2.84-4.74,3.84-7.33
		c0.17-0.43,0.01-1.13,0.79-1.15c0.14-0.14-0.06-0.35,0.11-0.48c0,0.17,0.05,0.33,0.06,0.5c0.08,1.4-0.15,2.8,0.13,4.19
		c0.51,2.7,1.65,5.1,3.86,6.77c4.08,3.08,6.05,2.33,8.28-0.93c0.06-0.09,0.17-0.14,0.13-0.11c7.17,5.21,13.59,3.39,19.72-2.01
		c0.09,3.1,1.52,4.65,4.4,4.97c2.05,0.23,4.04-0.07,5.95-0.8c1.33-0.51,2.69-1.27,3-2.68c0.42-1.95,1.81-2.98,3.08-4.21
		c0.66-0.64,1.38-1.3,1.82-2.09c0.8-1.47,1.28-0.93,1.97,0.06c0.47,0.68,0.53,1.04-0.31,1.43c-0.84,0.39-1.53,1.02-2.14,1.74
		c-1.85,2.18-1.42,4.53,1.11,5.9c2.7,1.46,8.1,0.65,10.27-1.54c0.58-0.59,1.05-1.27,1.19-2.08c0.2-1.24,0.93-1.99,2.05-2.62
		c0.52,1.39,1.1,2.67,2.05,3.68c3.19,3.39,7.34,5.26,10.17-0.5c0.02-0.05,0.08-0.08,0.13-0.12c4.56,4.58,6.59,4.89,10.09,1.53
		c2.58,2.43,5.56,2.91,9.28,1.82c-1.56-0.96-1.88-2.28-2.09-3.59c-0.44-2.75-0.48-5.54-0.26-8.31c0.14-1.72,0.63-3.41,1.88-4.74
		c1.01,0.05,0.53,0.67,0.44,1.14c-0.14,2.95-0.39,5.89-0.4,8.84c-0.01,4.91,3.62,8.03,8.51,7.53c0.82-0.08,0.99-0.34,0.78-1.07
		c-0.34-1.16-0.76-2.32-0.94-3.51c-0.55-3.55,0.28-7.03,0.79-10.5c0.15-1.01,0.75-1.98,1.96-2.93c-0.18,1.99-0.3,3.57-0.47,5.16
		c-0.38,3.52,0.39,6.79,2.83,9.33c4.83,5.02,8.33,3.8,10.52-1.9c1.16-3.03,6.32-12.07,6.96-15.24c0.19-0.96,0.42-1.93,0.5-2.9
		C225.19,34.44,223.97,33.01,222.46,32.84z M84.62,40.91c-0.13,3.5-0.85,6.88-2.68,9.93c-0.36,0.59-0.76,1.19-1.61,1.09
		c-0.82-0.1-1.12-0.76-1.42-1.38c-0.63-1.32-0.14-2.74-0.26-4.09c-0.68-2.75,0.59-4.84,2.22-6.81c0.68-0.82,1.5-1.32,2.57-1.01
		C84.61,38.95,84.66,40.02,84.62,40.91z M120.42,39.33c1.11-0.81,1.98-0.45,2.27,0.88c0.4,1.81-0.49,3.11-1.75,4.23
		c-1.24,1.1-2.75,1.62-4.49,2.08C116.74,43.37,118.06,41.05,120.42,39.33z M120.89,53.37c-0.66,0.21-1.36,0.33-2.05,0.11
		c-0.62-0.2-1.38-0.48-1.44-1.1c-0.07-0.79,0.86-0.58,1.33-0.72c3.11-0.96,6.02-2.26,8.37-4.69
		C125.84,49.91,124.09,52.37,120.89,53.37z M127.82,45.51c0.05-0.55-0.01-1.16,0.6-1.7C128.62,44.6,128.31,45.07,127.82,45.51z
		 M134,50.25c-0.49,0.65-1.22,1.11-2.31,1.28c0.32-0.57,0.53-0.94,0.74-1.32c0.19-0.35,0.36-0.72,0.57-1.16
		C133.65,49.35,134.14,50.06,134,50.25z"/>
</g>
</svg>
