<?xml version="1.0" encoding="utf-8"?>
<!-- Generator: Adobe Illustrator 24.0.1, SVG Export Plug-In . SVG Version: 6.00 Build 0)  -->
<svg version="1.1" xmlns="http://www.w3.org/2000/svg" xmlns:xlink="http://www.w3.org/1999/xlink" x="0px" y="0px"
	 viewBox="0 0 221.85 106.61" style="enable-background:new 0 0 221.85 106.61;" xml:space="preserve">
<style type="text/css">
	.st0{fill:#54290B;}
	.st1{fill:#A48E7C;}
	.st2{fill:#A99584;}
	.st3{fill:#AA9685;}
</style>
<g id="Ebene_2">
</g>
<g id="Ebene_1">
	<path class="st0" d="M9.6,2.49c1.23-0.18,2.49-0.28,3.73-0.24c6.12,0.2,8.89,3.02,8.51,9.1c-0.57,9.14-1.38,18.26-2.08,27.39
		c-0.06,0.72-0.01,1.45-0.01,2.64c5.3-4.28,9.21-9.12,12.75-14.27c4.44-6.46,8.11-13.38,11.57-20.4c1.52-3.09,2.92-3.36,5.52-1.11
		c2.25,1.96,3.74,4.43,4.83,7.18c0.62,1.58,0.44,3.01-0.34,4.54c-6.67,12.98-15.76,23.84-27.92,32.1
		c8.09,11.44,16.49,22.6,27.17,31.78c6.16,5.29,12.7,9.95,20.92,11.58c4.61,0.91,9.09,0.69,13.42-1.25
		c0.53-0.24,1.06-0.49,1.61-0.66c1.66-0.53,3.03-0.01,3.8,1.49c0.82,1.58,0.18,2.79-1.3,3.78c-12.51,8.39-25.09,8.06-37.65,0.22
		C42.95,89.4,34.71,79.49,27.21,68.9c-2.68-3.78-5.18-7.7-7.99-11.89c-0.48,2.31-0.2,4.26-0.18,6.2c0.05,5.02,1.08,9.92,1.78,14.86
		c0.17,1.23,0.51,2.63-0.81,3.4c-1.19,0.69-2.2-0.3-3.22-0.78c-0.52-0.25-1-0.61-1.51-0.88c-6.36-3.45-9.57-8.42-9.74-16.02
		c-0.32-14.5-0.55-28.96,1.13-43.4c0.16-1.4,0.31-2.82,0.29-4.23"/>
	<path class="st1" d="M160.26,62.19c0.08,0.66-0.02,1.26-0.93,1.99c0-2.9,0-5.45,0-8.01c0.83,1.08,0.33,2.35,0.5,3.53
		C159.97,60.53,159.37,61.49,160.26,62.19z"/>
	<path class="st2" d="M182.27,41.23c-1.15-0.01-2.3-0.02-3.45-0.04c-0.07,0-0.19-0.09-0.19-0.12c0.01-0.11,0.07-0.22,0.12-0.33
		C179.95,40.72,181.19,40.4,182.27,41.23z"/>
	<path class="st3" d="M174.19,69.26c-0.51-0.69-0.56-1.56-0.35-2.25c0.28-0.89,0.73-0.49,0.95,0.17
		C173.91,67.67,174.58,68.62,174.19,69.26z"/>
	<path class="st0" d="M215.31,46.69c-2.26-0.43-3.4,0.61-4.12,3.51c-0.92,3.71-1.91,7.4-2.96,11.07c-0.61,2.14-1.88,3.87-3.74,5.53
		c0.29-10.96,0.56-21.42,0.84-31.89c1.63-0.23,2.82,0.83,4.24,0.94c0.69-1.39,0.96-2.92,0.86-4.37c-0.19-2.85-0.03-6.05-3.86-6.94
		c-1.06-0.24-0.74-1.15-0.89-1.82c-1.19-5.21-5.21-7.98-10.52-7.32c-1.52,0.19-2.47,0.59-2.25,2.43c0.17,1.39-0.12,2.84,0.02,4.24
		c0.21,2.16-0.36,3.23-2.72,2.46c-1.25-0.41-1.84,0.01-1.94,1.36c-0.25,3.35,0.31,6.34,3.44,8.24c0.74,0.45,1.02,0.94,1.01,1.79
		c-0.1,8.12,0.69,16.28-1.95,24.24c-1.5,4.52-2.89,5.19-6.98,2.29c2.19-1.82,3.59-4.13,4.29-6.86c1.62-6.34-0.77-12.27-5.78-14.36
		c-1.1-0.66-2.42,0.21-3.52-0.5c5.79-6.4,7.14-14,6.08-22.27c-0.42-3.3-3.24-6.88-6.05-7.62c-3.14-0.82-5.8,0.46-8.18,3.88
		c-2.49,3.58-4.18,7.52-5.49,11.67c-2.83,8.94-3,18.16-2.98,27.4c0.01,2.93-0.45,5.78-1.87,8.41c-0.12,0.15-0.26,0.21-0.41,0.15
		c-0.07-0.03-0.17-0.07-0.18-0.12c-0.44-2,0.16-4.05-0.33-6.04c-0.35-1.99-0.8-3.93-2.47-5.29c-0.51-0.41-0.52-0.96-0.67-1.52
		c-2.72-10.1-13.35-15.51-23.15-6.98c-5.22,4.54-7.52,10.7-7.41,17.6c0.05,3.03-1.57,4.78-3.82,7.02
		c0.86-9.67,0.49-18.74,0.95-27.79c0.23-4.57,0.08-4.58,4.35-3.32c0.71-1.54,1.03-3.24,0.88-4.84c-0.26-2.76-0.33-5.85-4.06-6.58
		c-0.92-0.18-0.59-1.06-0.72-1.66c-1.13-5.2-5.15-8.01-10.45-7.42c-1.71,0.19-2.51,0.79-2.3,2.65c0.17,1.48-0.13,3,0,4.49
		c0.17,1.96-0.54,2.59-2.43,2.07c-0.97-0.27-1.9-0.56-2.21,1.02c-0.6,3.04,0.59,6.66,3.2,8.34c1.02,0.66,1.24,1.36,1.23,2.43
		c-0.03,4.66,0.2,9.34-0.08,13.98c-0.26,4.44-1.71,8.67-3.04,12.99c0-3.82-0.13-7.46,0.03-11.09c0.39-9.02-6.78-13.98-14.94-10.19
		c-1.02,0.47-1.49,0.51-2.18-0.49c-2.01-2.91-5.01-3.34-8.22-2.87c-1.86,0.27-2.7,1.3-2.34,3.33c0.7,3.88,0.29,7.81,0.25,11.71
		c-0.01,1.3-0.51,2.58-1.81,3.69c0.75-4.72,0.49-9.13-1.4-13.32c-2.78-6.14-9.21-7.93-14.69-4c-1.11,0.79-1.9,0.99-3.07,0.28
		c-1.74-1.06-3.2-0.56-4.71,0.78c-7.23,6.4-9.21,17.25-4.92,26.01c4.7,9.59,18.42,12.09,24.78,2.54c1.25-1.88,3.45-1.32,5.14-2.07
		c0.38-0.17,0.54,0.48,0.69,0.87c2.6,6.64,6.1,8.62,13.02,7.38c-2.84-10.49-1.96-21.19,2.04-24.4c0.09,1.95-0.09,3.84-0.28,5.75
		c-0.65,6.57,0.75,12.5,6.29,16.66c5.07,3.82,8.27,3.04,11.65-2.39c0.11-0.18,0.37-0.28,0.56-0.41c5.41,6.73,9.94,7.07,15.87,1.12
		c0.85-0.85,1.15-0.38,1.75,0.1c4.99,4.03,10.9,3.97,15.63-0.17c1-0.87,1.79-2.57,2.81-2.68c1.41-0.15,1.76,1.9,2.72,2.89
		c4.18,4.29,7.29,4.68,11.75,1.14c0.8-0.63,1.12-0.26,1.65,0.13c3.61,2.63,7.55,3.08,12.06,1.74c-1.87-1.76-3.03-3.7-3.08-6.14
		c-0.3-1.71-0.3-1.71,0.6-2.08c2.13,2.48,4.6,4.61,7.4,6.27c6.84,4.07,8.75,4.07,13.3-2.28c0.53,0.65,1.02,1.3,1.55,1.91
		c3.78,4.31,9.68,4.4,13.51,0.18c1.41-1.55,2.42-3.36,3.29-5.27c2.36-5.2,3.32-10.79,4.47-16.31
		C218.81,49.27,217.36,47.09,215.31,46.69z M70.63,58.72c-0.27,1.76-3.33,10.24-8.95,9.35c-4.02-0.64-7.66-13.94,5.77-21.59
		c1.39-0.79,2.02-1.05,2.75,0.28c0.99,1.79,1.22,3.77,1.14,5.75C71.49,54.65,70.94,56.67,70.63,58.72z M149.29,53.53
		c-0.59,5.38-2.69,8.5-5.95,12.33c-0.45,0.53-1.82,1.58-3.55,1.7c-4.73,0.31-4.55-3.55-4.87-4.28c-0.12-0.29-0.15-0.87-0.12-1.59
		c0.16-3.53,1.49-6.89,3.68-9.66c0.36-0.45,0.57-1.19,1.21-1.73c2.48-2.08,3.32-2.82,5.14-3.03c0.91-0.1,2.61-1,3.26-0.04
		c0.47,0.69,1.18,1.58,1.2,2.58C149.34,52.2,149.36,52.83,149.29,53.53z M179.73,56.17c-2.05,0-2.87-1.37-2.87-4.09
		s0.83-4.46,2.87-4.46c2.05,0,2.54,1.13,2.54,3.85S181.78,56.17,179.73,56.17z"/>
</g>
</svg>
